<!--Generated by EdrawMax, SVG Export maspo_intro.svg 页-3-->
<svg height="343" xmlns="http://www.w3.org/2000/svg" viewBox="0 0 762 343" xmlns:ed="https://www.edrawsoft.cn/xml/2017/SVGExtensions/" xmlns:xlink="http://www.w3.org/1999/xlink" width="762"><defs><clipPath id="clip1"><path d="M3.3,-1.0L22.7,-1.0L22.7,415.3L22.4,416.8L21.5,418.2L20.1,419.1L18.6,419.4L-1.0,419.4L-1.0,3.2L-0.7,1.6L.2,.2L1.6,-0.7L3.1,-1.0L3.2,-0.3L.7,.7L-0.3,3.3L-0.3,418.7L18.5,418.7L21.0,417.7L22.1,415.1L22.1,.0L22.1,-0.3L3.3,-0.3L3.3,-1.0zM5.3,1.0L3.4,1.0L2.4,1.2L1.7,1.7L1.2,2.4L1.0,3.4L1.0,417.4L18.4,417.4L19.3,417.2L20.1,416.7L20.5,416.0L20.7,415.0L20.7,1.0L5.3,1.0zM3.3,.3L1.2,1.2L.3,3.3L.3,418.1L18.5,418.1L20.6,417.2L21.4,415.1L21.4,.3L3.3,.3"/></clipPath><clipPath id="clip2"><path d="M3.3,-1.0L22.7,-1.0L22.7,757.3L22.4,758.9L21.5,760.2L20.1,761.1L18.6,761.5L-1.0,761.5L-1.0,3.2L-0.7,1.6L.2,.2L1.6,-0.7L3.1,-1.0L3.2,-0.3L.7,.7L-0.3,3.3L-0.3,760.5L-0.3,760.8L18.5,760.8L21.0,759.7L22.1,757.2L22.1,.0L22.1,-0.3L3.3,-0.3L3.3,-1.0zM5.3,1.0L3.4,1.0L2.4,1.2L1.7,1.7L1.2,2.4L1.0,3.4L1.0,759.5L18.4,759.5L19.3,759.3L20.1,758.8L20.5,758.1L20.7,757.1L20.7,1.0L5.3,1.0zM3.3,.3L1.2,1.2L.3,3.3L.3,760.1L18.5,760.1L20.6,759.3L21.4,757.2L21.4,.3L3.3,.3"/></clipPath><clipPath id="clip3"><path d="M3.3,-1.0L22.8,-1.0L22.8,319.3L22.5,320.8L21.6,322.2L20.2,323.1L18.7,323.4L-1.0,323.4L-1.0,3.2L-0.7,1.6L.2,.2L1.6,-0.7L3.1,-1.0L3.2,-0.3L.7,.7L-0.3,3.3L-0.3,322.4L-0.3,322.8L18.6,322.8L21.1,321.7L22.2,319.2L22.2,-0.3L3.3,-0.3L3.3,-1.0zM5.3,1.0L3.4,1.0L2.4,1.2L1.7,1.7L1.2,2.4L1.0,3.4L1.0,321.4L18.5,321.4L19.4,321.2L20.2,320.8L20.6,320.0L20.8,319.1L20.8,1.0L5.3,1.0zM3.3,.3L1.2,1.2L.3,3.3L.3,322.1L18.6,322.1L20.7,321.3L21.5,319.2L21.5,.3L3.3,.3"/></clipPath><clipPath id="clip4"><path d="M-0.0,-1.0L41.6,-1.0L41.6,-0.3L-0.0,-0.3L-0.0,-1.0zM41.6,.3L41.6,1.0L-0.0,1.0L-0.0,.3L41.6,.3"/></clipPath><clipPath id="clip5"><path d="M-0.0,-1.0L41.6,-1.0L41.6,-0.3L-0.0,-0.3L-0.0,-1.0zM41.6,.3L41.6,1.0L-0.0,1.0L-0.0,.3L41.6,.3"/></clipPath><clipPath id="clip6"><path d="M-0.0,-1.0L41.6,-1.0L41.6,-0.3L-0.0,-0.3L-0.0,-1.0zM41.6,.3L41.6,1.0L-0.0,1.0L-0.0,.3L41.6,.3"/></clipPath><clipPath id="clip7"><path d="M-0.0,-1.0L41.6,-1.0L41.6,-0.3L-0.0,-0.3L-0.0,-1.0zM41.6,.3L41.6,1.0L-0.0,1.0L-0.0,.3L41.6,.3"/></clipPath></defs><g transform="translate(-1923.00,-1815.85)"><path id="shape1" fill-rule="nonzero" fill="#bc5b57" transform="translate(1990.699760,1851.459760)" d="M.0,8.0C.0,3.6,3.6,.0,8.0,.0C12.4,.0,16.0,3.6,16.0,8.0C16.0,12.4,12.4,16.0,8.0,16.0C3.6,16.0,.0,12.4,.0,8.0z"/><path id="shape2" fill-rule="nonzero" stroke-width="2" fill="#e0ebff" stroke="#668cbc" transform="matrix(0.000000,1.000000,-1.000000,0.000000,2342.415000,1931.123900)" d="M3.3,.0L21.7,.0L21.7,415.1C21.7,416.9,20.3,418.4,18.5,418.4L.0,418.4L.0,3.3C.0,1.5,1.5,.0,3.3,.0z" clip-path="url(#clip1)"/><path id="shape3" stroke-width="1.333330035209656" stroke-dasharray="3.33333,3.33333" fill="none" stroke="#2d3c91" transform="translate(1924.305000,1848.573900)" d="M418.4,21.7L418.4,.0L.0,.0L.0,21.7L418.4,21.7z"/><path id="shape4" fill-rule="nonzero" stroke-width="2" fill="#e5e5e5" stroke="#868686" transform="matrix(0.000000,1.000000,-1.000000,0.000000,2684.462000,1816.853900)" d="M3.3,.0L21.7,.0L21.7,757.2C21.7,759.0,20.3,760.5,18.5,760.5L.0,760.5L.0,3.3C.0,1.5,1.5,.0,3.3,.0z" clip-path="url(#clip2)"/><path id="shape5" fill-rule="nonzero" fill="#c5dcff" transform="translate(2049.497550,2007.652700)" d="M19.8,122.8L19.8,.0L.0,.0L.0,122.8L19.8,122.8z"/><path id="shape6" fill-rule="nonzero" stroke-width="2" fill="#ffdddc" stroke="#bc5b57" transform="matrix(0.000000,1.000000,-1.000000,0.000000,2684.022000,1931.120700)" d="M3.3,.0L21.8,.0L21.8,319.2C21.8,321.0,20.4,322.4,18.6,322.4L.0,322.4L.0,3.3C.0,1.5,1.5,.0,3.3,.0z" clip-path="url(#clip3)"/><path id="shape7" stroke-width="2" fill="none" stroke="#000000" transform="matrix(0.000000,1.000000,1.000000,0.000000,2498.414800,2023.040470)" d="M.0,.0L3.8,.0C4.8,-0.1,5.9,.2,6.6,.9C7.4,1.7,7.7,2.7,7.6,3.8L7.6,75.5C7.4,76.5,7.8,77.6,8.5,78.3C9.2,79.1,10.3,79.4,11.3,79.3C10.3,79.1,9.2,79.5,8.5,80.2C7.8,81.0,7.4,82.0,7.6,83.1L7.6,153.1C7.7,154.1,7.4,155.2,6.6,155.9C5.9,156.6,4.8,157.0,3.8,156.8L.0,156.8"/><path id="shape8" stroke-width="1.333330035209656" stroke-dasharray="3.33333,3.33333" fill="none" stroke="#101843" transform="translate(2361.875400,2040.854400)" d="M133.1,45.0L133.1,.0L.0,.0L.0,45.0L133.1,45.0z"/><path id="shape9" fill-rule="nonzero" fill="#d1d1d1" transform="translate(2274.337550,2000.093600)" d="M19.8,130.4L19.8,.0L.0,.0L.0,130.4L19.8,130.4z"/><g id="group10" transform="translate(2371.516900,2055.320000)"><path id="shape11" fill-rule="nonzero" fill="#000000" transform="translate(8.307720,12.923050)" d="M.0,.9C.0,.4,.4,.0,.9,.0L1.8,.0C2.4,.0,2.8,.4,2.8,.9L2.8,2.8C2.8,3.3,2.4,3.7,1.8,3.7L.9,3.7C.4,3.7,.0,3.3,.0,2.8L.0,.9zM7.4,.0C6.9,.0,6.5,.4,6.5,.9L6.5,2.8C6.5,3.3,6.9,3.7,7.4,3.7L8.3,3.7C8.8,3.7,9.2,3.3,9.2,2.8L9.2,.9C9.2,.4,8.8,.0,8.3,.0L7.4,.0z"/><path id="shape12" fill-rule="nonzero" fill="#000000" d="M13.8,3.4C14.6,3.0,14.9,2.2,14.7,1.4C14.5,.6,13.8,.0,12.9,.0C12.1,.0,11.4,.6,11.1,1.4C10.9,2.2,11.3,3.0,12.0,3.4L12.0,6.5L6.5,6.5C4.9,6.5,3.7,7.7,3.7,9.2L3.7,21.2C3.7,22.8,4.9,24.0,6.5,24.0L19.4,24.0C20.9,24.0,22.2,22.8,22.2,21.2L22.2,9.2C22.2,7.7,20.9,6.5,19.4,6.5L13.8,6.5L13.8,3.4zM6.5,8.3L19.4,8.3C19.9,8.3,20.3,8.7,20.3,9.2L20.3,21.2C20.3,21.7,19.9,22.2,19.4,22.2L6.5,22.2C6.0,22.2,5.5,21.7,5.5,21.2L5.5,9.2C5.5,8.7,6.0,8.3,6.5,8.3zM.0,13.4C.0,12.6,.6,12.0,1.4,12.0C1.6,12.0,1.8,12.2,1.8,12.5L1.8,18.9C1.8,19.2,1.6,19.4,1.4,19.4C.6,19.4,.0,18.8,.0,18.0L.0,13.4zM24.5,12.0C24.2,12.0,24.0,12.2,24.0,12.5L24.0,18.9C24.0,19.2,24.2,19.4,24.5,19.4C25.2,19.4,25.8,18.8,25.8,18.0L25.8,13.4C25.8,12.6,25.2,12.0,24.5,12.0z"/></g><path id="shape13" fill-rule="nonzero" fill="#d1d1d1" transform="translate(1936.117550,2102.146800)" d="M19.8,28.3L19.8,.0L.0,.0L.0,28.3L19.8,28.3z"/><path id="shape14" fill-rule="nonzero" fill="#d1d1d1" transform="translate(1973.907550,2083.248000)" d="M19.8,47.2L19.8,.0L.0,.0L.0,47.2L19.8,47.2z"/><path id="shape15" fill-rule="nonzero" fill="#d1d1d1" transform="translate(2011.707550,2090.807500)" d="M19.8,39.7L19.8,.0L.0,.0L.0,39.7L19.8,39.7z"/><path id="shape16" fill-rule="nonzero" fill="#d1d1d1" transform="translate(2090.057550,2030.331300)" d="M19.8,100.2L19.8,.0L.0,.0L.0,100.2L19.8,100.2z"/><path id="shape17" fill-rule="nonzero" fill="#668cbc" transform="translate(2049.497550,1966.521900)" d="M19.8,42.2L19.8,.0L.0,.0L.0,42.2L19.8,42.2z"/><path id="shape18" fill-rule="nonzero" fill="#7e7e7e" transform="translate(2090.057550,2007.651400)" d="M19.8,22.7L19.8,.0L.0,.0L.0,22.7L19.8,22.7z"/><path id="shape19" fill-rule="nonzero" fill="#7e7e7e" transform="translate(1973.907550,2064.351180)" d="M19.8,18.9L19.8,.0L.0,.0L.0,18.9L19.8,18.9z"/><path id="shape20" fill-rule="nonzero" fill="#7e7e7e" transform="translate(2011.707550,2073.796060)" d="M19.8,17.0L19.8,.0L.0,.0L.0,17.0L19.8,17.0z"/><path id="shape21" fill-rule="nonzero" fill="#7e7e7e" transform="translate(1936.117550,2087.030940)" d="M19.8,15.1L19.8,.0L.0,.0L.0,15.1L19.8,15.1z"/><path id="shape22" stroke-width="2" fill="none" stroke="#303030" transform="matrix(-1.000000,0.000000,0.000000,-1.000000,2125.095000,2130.600000)" d="M-0.0,-0.0L200.3,-0.0"/><g id="shape23" transform="translate(2059.420000,2008.760000)"><path stroke-width="2" fill="none" stroke="#191919" d="M.0,.0L.0,-37.3"/><path stroke-width="1" stroke-linecap="round" fill="#191919" stroke="#191919" d="M.0,-42.2L-2.8,-32.4L.0,-37.3L2.8,-32.4L.0,-42.2"/></g><g id="shape24" transform="translate(2099.980000,2007.650000)"><path stroke-width="2" fill="none" stroke="#191919" d="M.0,.0L.0,17.8"/><path stroke-width="1" stroke-linecap="round" fill="#191919" stroke="#191919" d="M.0,22.7L2.8,12.9L.0,17.8L-2.8,12.9L.0,22.7"/></g><g id="shape25" transform="translate(2021.630000,2073.800000)"><path stroke-width="2" fill="none" stroke="#191919" d="M.0,.0L.0,12.1"/><path stroke-width="1" stroke-linecap="round" fill="#191919" stroke="#191919" d="M.0,17.0L2.8,7.2L.0,12.1L-2.8,7.2L.0,17.0"/></g><g id="shape26" transform="translate(1983.830000,2064.350000)"><path stroke-width="2" fill="none" stroke="#191919" d="M.0,.0L.0,14.0"/><path stroke-width="1" stroke-linecap="round" fill="#191919" stroke="#191919" d="M.0,18.9L2.8,9.1L.0,14.0L-2.8,9.1L.0,18.9"/></g><g id="shape27" transform="translate(1946.040000,2087.030000)"><path stroke-width="2" fill="none" stroke="#191919" d="M.0,.0L.0,10.2"/><path stroke-width="1" stroke-linecap="round" fill="#191919" stroke="#191919" d="M.0,15.1L2.8,5.3L.0,10.2L-2.8,5.3L.0,15.1"/></g><path id="shape28" fill-rule="nonzero" fill="#d1d1d1" transform="translate(2160.957550,2102.145400)" d="M19.8,28.3L19.8,.0L.0,.0L.0,28.3L19.8,28.3z"/><path id="shape29" fill-rule="nonzero" fill="#c5dcff" transform="translate(2198.747550,2083.246000)" d="M19.8,47.2L19.8,.0L.0,.0L.0,47.2L19.8,47.2z"/><path id="shape30" fill-rule="nonzero" fill="#d1d1d1" transform="translate(2236.547550,2090.805800)" d="M19.8,39.7L19.8,.0L.0,.0L.0,39.7L19.8,39.7z"/><path id="shape31" fill-rule="nonzero" fill="#d1d1d1" transform="translate(2314.897550,2030.332700)" d="M19.8,100.2L19.8,.0L.0,.0L.0,100.2L19.8,100.2z"/><path id="shape32" fill-rule="nonzero" fill="#7e7e7e" transform="translate(2274.337550,2000.101400)" d="M19.8,22.7L19.8,.0L.0,.0L.0,22.7L19.8,22.7z"/><path id="shape33" fill-rule="nonzero" fill="#7e7e7e" transform="translate(2314.897550,2007.653700)" d="M19.8,22.7L19.8,.0L.0,.0L.0,22.7L19.8,22.7z"/><path id="shape34" fill-rule="nonzero" fill="#668cbc" transform="translate(2198.747550,2068.130050)" d="M19.8,15.1L19.8,.0L.0,.0L.0,15.1L19.8,15.1z"/><path id="shape35" fill-rule="nonzero" fill="#7e7e7e" transform="translate(2236.547550,2073.796060)" d="M19.8,17.0L19.8,.0L.0,.0L.0,17.0L19.8,17.0z"/><path id="shape36" fill-rule="nonzero" fill="#7e7e7e" transform="translate(2160.957550,2087.030940)" d="M19.8,15.1L19.8,.0L.0,.0L.0,15.1L19.8,15.1z"/><path id="shape37" stroke-width="2" fill="none" stroke="#303030" transform="matrix(-1.000000,0.000000,0.000000,-1.000000,2348.085000,2130.600000)" d="M-0.0,-0.0L200.3,-0.0"/><g id="shape38" transform="translate(2284.260000,2000.100000)"><path stroke-width="2" fill="none" stroke="#191919" d="M.0,.0L.0,17.8"/><path stroke-width="1" stroke-linecap="round" fill="#191919" stroke="#191919" d="M.0,22.7L2.8,12.9L.0,17.8L-2.8,12.9L.0,22.7"/></g><g id="shape39" transform="translate(2324.820000,2007.650000)"><path stroke-width="2" fill="none" stroke="#191919" d="M.0,.0L.0,17.8"/><path stroke-width="1" stroke-linecap="round" fill="#191919" stroke="#191919" d="M.0,22.7L2.8,12.9L.0,17.8L-2.8,12.9L.0,22.7"/></g><g id="shape40" transform="translate(2246.470000,2073.800000)"><path stroke-width="2" fill="none" stroke="#191919" d="M.0,.0L.0,12.1"/><path stroke-width="1" stroke-linecap="round" fill="#191919" stroke="#191919" d="M.0,17.0L2.8,7.2L.0,12.1L-2.8,7.2L.0,17.0"/></g><g id="shape41" transform="translate(2208.670000,2083.250000)"><path stroke-width="2" fill="none" stroke="#191919" d="M.0,.0L.0,-10.2"/><path stroke-width="1" stroke-linecap="round" fill="#191919" stroke="#191919" d="M.0,-15.1L-2.8,-5.3L.0,-10.2L2.8,-5.3L.0,-15.1"/></g><g id="shape42" transform="translate(2170.880000,2087.030000)"><path stroke-width="2" fill="none" stroke="#191919" d="M.0,.0L.0,10.2"/><path stroke-width="1" stroke-linecap="round" fill="#191919" stroke="#191919" d="M.0,15.1L2.8,5.3L.0,10.2L-2.8,5.3L.0,15.1"/></g><path id="shape43" stroke-width="2" fill="none" stroke="#000000" transform="matrix(-1.000000,0.000000,0.000000,1.000000,2046.828220,1966.521900)" d="M.0,.0L3.9,.0C5.0,-0.2,6.0,.2,6.8,1.0C7.6,1.7,7.9,2.8,7.8,3.9L7.8,18.1C7.6,19.2,8.0,20.2,8.7,21.0C9.5,21.8,10.6,22.1,11.7,22.0C10.6,21.8,9.5,22.2,8.7,23.0C8.0,23.7,7.6,24.8,7.8,25.9L7.8,38.3C7.9,39.4,7.6,40.5,6.8,41.3C6.0,42.0,5.0,42.4,3.9,42.2L.0,42.2"/><path id="shape44" fill-rule="nonzero" fill="#d1d1d1" transform="translate(2223.320100,1966.520960)" d="M25.1,15.1L25.1,.0L.0,.0L.0,15.1L25.1,15.1z"/><path id="shape45" fill-rule="nonzero" fill="#c5dcff" transform="translate(2102.290100,1966.520960)" d="M25.1,15.1L25.1,.0L.0,.0L.0,15.1L25.1,15.1z"/><g id="shape46" transform="translate(2130.541100,1962.080000)"><text xml:space="preserve" style="fill:#000000;font-family:Comic Sans MS,PingFang SC,Microsoft YaHei,Arial;font-size:11px"><tspan textLength="76.3" x="4.4" y="17.0">Positive Action</tspan></text></g><g id="shape47" transform="translate(2252.724300,1962.080000)"><text xml:space="preserve" style="fill:#000000;font-family:Comic Sans MS,PingFang SC,Microsoft YaHei,Arial;font-size:11px"><tspan textLength="82.6" x="4.1" y="17.0">Negative Action</tspan></text></g><path id="shape48" fill-rule="nonzero" stroke-width="1.333330035209656" stroke-dasharray="2.66666,6.66665" fill="#c2ece4" stroke="#000000" transform="translate(2361.579000,1964.097550)" d="M293.4,19.8L293.4,.0L.0,.0L.0,19.8L293.4,19.8z"/><path id="shape49" fill-rule="nonzero" fill="#c2ece4" transform="translate(2361.582300,1996.307550)" d="M136.8,19.8L136.8,.0L.0,.0L.0,19.8L136.8,19.8z"/><path id="shape50" fill-rule="nonzero" fill="#ffc0be" transform="translate(2496.558800,1996.307550)" d="M158.4,19.8L158.4,.0L.0,.0L.0,19.8L158.4,19.8z"/><path id="shape51" stroke-width="1.333330035209656" stroke-dasharray="2.66666,6.66665" fill="none" stroke="#000000" transform="translate(2361.579000,1996.307550)" d="M293.4,19.8L293.4,.0L.0,.0L.0,19.8L293.4,19.8z"/><path id="shape52" fill-rule="nonzero" fill="#379e90" transform="translate(2610.485400,2059.384800)" d="M21.4,20.2L21.4,.0L.0,.0L.0,20.2L21.4,20.2z"/><path id="shape53" fill-rule="nonzero" fill="#bc5b57" transform="translate(2465.785000,2059.379260)" d="M20.8,19.9L20.8,.0L.0,.0L.0,19.9L20.8,19.9z"/><path id="shape54" fill-rule="nonzero" fill="#ffffff" transform="translate(2612.612680,2063.064510)" d="M6.2,9.5L15.5,.0L17.1,1.7L6.2,12.9L.0,6.5L1.6,4.9L6.2,9.5z"/><g id="group55" transform="translate(2469.119210,2062.210930)"><path id="shape56" fill-rule="nonzero" fill="#ffffff" d="M13.1,14.2C12.8,14.2,12.6,14.1,12.3,13.9L.3,1.9C-0.1,1.4,-0.1,.7,.3,.3C.7,-0.1,1.4,-0.1,1.9,.3L13.9,12.3C14.3,12.8,14.3,13.5,13.9,13.9C13.7,14.1,13.4,14.2,13.1,14.2z"/><path id="shape57" fill-rule="nonzero" fill="#ffffff" transform="translate(0.000070,0.000000)" d="M1.1,14.2C.8,14.2,.5,14.1,.3,13.9C-0.1,13.5,-0.1,12.8,.3,12.3L12.3,.3C12.8,-0.1,13.5,-0.1,13.9,.3C14.3,.7,14.3,1.4,13.9,1.9L1.9,13.9C1.6,14.1,1.4,14.2,1.1,14.2z"/></g><g id="shape58" transform="translate(2452.932900,1962.020000)"><text xml:space="preserve" style="fill:#000000;font-family:Comic Sans MS,PingFang SC,Microsoft YaHei,Arial;font-size:11px"><tspan textLength="79.5" x="15.6" y="17.0">Positive Sample</tspan></text></g><g id="shape59" transform="translate(2453.092900,1994.230000)"><text xml:space="preserve" style="fill:#000000;font-family:Comic Sans MS,PingFang SC,Microsoft YaHei,Arial;font-size:11px"><tspan textLength="85.8" x="12.4" y="17.0">Negative Sample</tspan></text></g><path id="shape60" stroke-width="2" fill="none" stroke="#000000" transform="matrix(0.000000,1.000000,1.000000,0.000000,2361.609000,2023.040470)" d="M.0,.0L3.8,.0C4.8,-0.1,5.9,.2,6.6,.9C7.4,1.7,7.7,2.7,7.6,3.8L7.6,63.6C7.4,64.6,7.8,65.7,8.5,66.4C9.2,67.2,10.3,67.5,11.3,67.4C10.3,67.2,9.2,67.6,8.5,68.3C7.8,69.1,7.4,70.1,7.6,71.2L7.6,129.2C7.7,130.3,7.4,131.3,6.6,132.1C5.9,132.8,4.8,133.2,3.8,133.0L.0,133.0"/><g id="shape61" transform="translate(2359.702300,2035.380000)"><text xml:space="preserve" style="fill:#000000;font-family:Comic Sans MS,PingFang SC,Microsoft YaHei,Arial;font-size:11px"><tspan textLength="118.2" x="9.3" y="17.0">Correct Reasoning Part</tspan></text></g><g id="shape62" transform="translate(2500.687000,2035.380000)"><text xml:space="preserve" style="fill:#000000;font-family:Comic Sans MS,PingFang SC,Microsoft YaHei,Arial;font-size:11px"><tspan textLength="129.0" x="14.2" y="17.0">Incorrect Reasoning Part</tspan></text></g><g id="shape63" transform="translate(2150.548900,1995.102800)"><path stroke-width="1" stroke-dasharray="2.5,2.5" fill="none" stroke="#191919" d="M.0,.0L111.4,.0L111.4,47.8L.0,47.8L.0,.0z"/><text xml:space="preserve" style="fill:#2d3c91;font-family:Comic Sans MS,PingFang SC,Microsoft YaHei,Arial;font-size:11px"><tspan textLength="84.7" x="13.4" y="21.0">Low Probability: </tspan><tspan textLength="96.1" x="7.7" y="37.0">A Tight Constraint</tspan></text></g><g id="shape64" transform="translate(1924.302700,1963.466800)"><path stroke-width="1" stroke-dasharray="2.5,2.5" fill="none" stroke="#191919" d="M.0,.0L107.2,.0L107.2,48.3L.0,48.3L.0,.0z"/><text xml:space="preserve" style="fill:#2d3c91;font-family:Comic Sans MS,PingFang SC,Microsoft YaHei,Arial;font-size:11px"><tspan textLength="89.0" x="9.1" y="21.5">High Probability: </tspan><tspan textLength="97.1" x="5.0" y="37.5">A Loose Constraint</tspan></text></g><g id="shape65" transform="translate(2208.670000,2064.130000)"><path stroke-width="2.666670083999634" stroke-dasharray="6.66668,6.66668" fill="none" stroke="#191919" d="M.0,.0L.2,-14.7"/><path stroke-width="1" stroke-linecap="round" fill="#191919" stroke="#191919" d="M-3.1,-14.7L.3,-21.2L3.4,-14.7L-3.1,-14.7"/></g><g id="shape66" transform="translate(1942.233000,1931.123900)"><text xml:space="preserve" style="fill:#000000;font-family:Times New Roman,PingFang SC,Microsoft YaHei,Arial;font-size:11px;font-weight:bold"><tspan textLength="308.8" x="38.6" y="15.0">Probability Mass Insensitivity Caused by Ratio-based Constraints</tspan></text></g><g id="shape67" transform="translate(2397.153000,1931.120700)"><text xml:space="preserve" style="fill:#000000;font-family:Times New Roman,PingFang SC,Microsoft YaHei,Arial;font-size:11px;font-weight:bold"><tspan textLength="211.8" x="20.3" y="15.0">The Inevitable Asymmetric Signal Reliability</tspan></text></g><g id="shape68" transform="translate(1936.118600,2012.260000)"><text xml:space="preserve" style="fill:#c00000;font-family:Myanmar MN,PingFang SC,Microsoft YaHei,Arial;font-size:11px"><tspan textLength="103.8" x="4.8" y="16.0">Leads to Overfitting</tspan></text></g><g id="shape69" transform="translate(2165.918900,2042.900000)"><text xml:space="preserve" style="fill:#c00000;font-family:Myanmar MN,PingFang SC,Microsoft YaHei,Arial;font-size:11px"><tspan textLength="99.4" x="6.0" y="16.0">Stifles   Exploration</tspan></text></g><g id="shape70" transform="translate(2420.927900,2057.350000)"><text xml:space="preserve" style="fill:#c00000;font-family:Myanmar MN,PingFang SC,Microsoft YaHei,Arial;font-size:11px"><tspan textLength="34.3" x="6.3" y="16.0">Forget</tspan></text></g><path id="shape71" fill-rule="nonzero" stroke-width="2" fill="#ff928e" stroke="#bc5b57" transform="translate(2407.709760,2059.379260)" d="M8.3,.0L8.3,12.0L13.2,10.7L6.6,19.9L.0,10.7L4.9,12.0L4.9,.0L8.3,.0"/><path id="shape72" stroke-width="1.333330035209656" stroke-dasharray="3.33333,3.33333" fill="none" stroke="#101843" transform="translate(2503.759400,2040.854400)" d="M151.2,45.0L151.2,.0L.0,.0L.0,45.0L151.2,45.0z"/><g id="group73" transform="translate(2515.836900,2055.330000)"><path id="shape74" fill-rule="nonzero" fill="#000000" transform="translate(8.307720,12.923050)" d="M.0,.9C.0,.4,.4,.0,.9,.0L1.8,.0C2.4,.0,2.8,.4,2.8,.9L2.8,2.8C2.8,3.3,2.4,3.7,1.8,3.7L.9,3.7C.4,3.7,.0,3.3,.0,2.8L.0,.9zM7.4,.0C6.9,.0,6.5,.4,6.5,.9L6.5,2.8C6.5,3.3,6.9,3.7,7.4,3.7L8.3,3.7C8.8,3.7,9.2,3.3,9.2,2.8L9.2,.9C9.2,.4,8.8,.0,8.3,.0L7.4,.0z"/><path id="shape75" fill-rule="nonzero" fill="#000000" d="M13.8,3.4C14.6,3.0,14.9,2.2,14.7,1.4C14.5,.6,13.8,.0,12.9,.0C12.1,.0,11.4,.6,11.1,1.4C10.9,2.2,11.3,3.0,12.0,3.4L12.0,6.5L6.5,6.5C4.9,6.5,3.7,7.7,3.7,9.2L3.7,21.2C3.7,22.8,4.9,24.0,6.5,24.0L19.4,24.0C20.9,24.0,22.2,22.8,22.2,21.2L22.2,9.2C22.2,7.7,20.9,6.5,19.4,6.5L13.8,6.5L13.8,3.4zM6.5,8.3L19.4,8.3C19.9,8.3,20.3,8.7,20.3,9.2L20.3,21.2C20.3,21.7,19.9,22.2,19.4,22.2L6.5,22.2C6.0,22.2,5.5,21.7,5.5,21.2L5.5,9.2C5.5,8.7,6.0,8.3,6.5,8.3zM.0,13.4C.0,12.6,.6,12.0,1.4,12.0C1.6,12.0,1.8,12.2,1.8,12.5L1.8,18.9C1.8,19.2,1.6,19.4,1.4,19.4C.6,19.4,.0,18.8,.0,18.0L.0,13.4zM24.5,12.0C24.2,12.0,24.0,12.2,24.0,12.5L24.0,18.9C24.0,19.2,24.2,19.4,24.5,19.4C25.2,19.4,25.8,18.8,25.8,18.0L25.8,13.4C25.8,12.6,25.2,12.0,24.5,12.0z"/></g><g id="shape76" transform="translate(2565.237900,2057.360000)"><text xml:space="preserve" style="fill:#c00000;font-family:Myanmar MN,PingFang SC,Microsoft YaHei,Arial;font-size:11px"><tspan textLength="34.3" x="6.3" y="16.0">Forget</tspan></text></g><path id="shape77" fill-rule="nonzero" stroke-width="2" fill="#ff928e" stroke="#bc5b57" transform="translate(2552.019760,2059.389260)" d="M8.3,.0L8.3,12.0L13.2,10.7L6.6,19.9L.0,10.7L4.9,12.0L4.9,.0L8.3,.0"/><g id="shape78" transform="translate(2664.717550,1996.307550)"><path fill-rule="nonzero" fill="#e16e6a" d="M.0,9.9C.0,4.4,4.4,.0,9.9,.0C15.4,.0,19.8,4.4,19.8,9.9C19.8,15.4,15.4,19.8,9.9,19.8C4.4,19.8,.0,15.4,.0,9.9z"/><text xml:space="preserve" style="fill:#000000;font-family:Microsoft YaHei,PingFang SC,Microsoft YaHei,Arial;font-size:8px"><tspan textLength="8.1" x="5.8" y="13.4">-1</tspan></text></g><g id="shape79" transform="translate(2664.717550,1964.097550)"><path fill-rule="nonzero" fill="#44bdad" d="M.0,9.9C.0,4.4,4.4,.0,9.9,.0C15.4,.0,19.8,4.4,19.8,9.9C19.8,15.4,15.4,19.8,9.9,19.8C4.4,19.8,.0,15.4,.0,9.9z"/><text xml:space="preserve" style="fill:#000000;font-family:Microsoft YaHei,PingFang SC,Microsoft YaHei,Arial;font-size:8px"><tspan textLength="10.6" x="4.6" y="13.4">+1</tspan></text></g><path id="shape80" fill-rule="nonzero" fill="#c2ece4" transform="translate(2361.876000,2096.787550)" d="M273.0,19.8L273.0,.0L.0,.0L.0,19.8L273.0,19.8z"/><path id="shape81" fill-rule="nonzero" fill="#ffc0be" transform="translate(2634.887550,2096.787550)" d="M19.8,19.8L19.8,.0L.0,.0L.0,19.8L19.8,19.8z"/><path id="shape82" stroke-width="1.333330035209656" stroke-dasharray="2.66666,6.66665" fill="none" stroke="#000000" transform="translate(2361.879000,2096.787550)" d="M293.1,19.8L293.1,.0L.0,.0L.0,19.8L293.1,19.8z"/><g id="shape83" transform="translate(2414.786200,2094.710000)"><text xml:space="preserve" style="fill:#000000;font-family:Comic Sans MS,PingFang SC,Microsoft YaHei,Arial;font-size:11px"><tspan textLength="133.4" x="28.2" y="17.0">Extreme Negative Sample</tspan></text></g><g id="shape84" transform="translate(2665.017550,2096.787550)"><path fill-rule="nonzero" fill="#e16e6a" d="M.0,9.9C.0,4.4,4.4,.0,9.9,.0C15.4,.0,19.8,4.4,19.8,9.9C19.8,15.4,15.4,19.8,9.9,19.8C4.4,19.8,.0,15.4,.0,9.9z"/><text xml:space="preserve" style="fill:#000000;font-family:Microsoft YaHei,PingFang SC,Microsoft YaHei,Arial;font-size:8px"><tspan textLength="8.1" x="5.8" y="13.4">-1</tspan></text></g><path id="shape85" stroke-width="2" fill="none" stroke="#000000" transform="matrix(0.000000,1.000000,1.000000,0.000000,2361.612000,2123.040470)" d="M.0,.0L3.8,.0C4.8,-0.1,5.9,.2,6.6,.9C7.4,1.7,7.7,2.7,7.6,3.8L7.6,133.7C7.4,134.8,7.8,135.8,8.5,136.6C9.2,137.3,10.3,137.6,11.3,137.5C10.3,137.3,9.2,137.7,8.5,138.4C7.8,139.2,7.4,140.2,7.6,141.3L7.6,269.5C7.7,270.5,7.4,271.6,6.6,272.3C5.9,273.1,4.8,273.4,3.8,273.3L.0,273.3"/><g id="shape86" transform="translate(2361.576000,2134.380000)"><text xml:space="preserve" style="fill:#000000;font-family:Comic Sans MS,PingFang SC,Microsoft YaHei,Arial;font-size:11px"><tspan textLength="242.6" x="20.7" y="17.0">Leads to More Serious Catastrophic Forgetting</tspan></text></g><g id="shape87" transform="translate(2148.839600,2134.380000)"><text xml:space="preserve" style="fill:#000000;font-family:Comic Sans MS,PingFang SC,Microsoft YaHei,Arial;font-size:11px"><tspan textLength="180.3" x="7.5" y="17.0">Vocabulary Distribution of Token B</tspan></text></g><g id="shape88" transform="translate(1923.999600,2134.380000)"><text xml:space="preserve" style="fill:#000000;font-family:Comic Sans MS,PingFang SC,Microsoft YaHei,Arial;font-size:11px"><tspan textLength="181.4" x="6.9" y="17.0">Vocabulary Distribution of Token A</tspan></text></g><g id="shape89" transform="translate(1941.356000,1816.858400)"><text xml:space="preserve" style="fill:#000000;font-family:Times New Roman,PingFang SC,Microsoft YaHei,Arial;font-size:11px;font-weight:bold"><tspan textLength="677.7" x="24.6" y="15.0">Inefficient Gradient Utilization: Discards Valuable Updates at Zero-Gradient Regions and Performs Incorrect Updates at Full-Gradient Regions</tspan></text></g><path id="shape90" fill-rule="nonzero" fill="#d0e2ff" transform="translate(2026.552900,1884.098150)" d="M82.7,10.4L82.7,.0L.0,.0L.0,10.4L82.7,10.4z"/><path id="shape91" fill-rule="nonzero" fill="#c0c3e5" transform="translate(2026.552900,1904.038150)" d="M82.7,10.4L82.7,.0L.0,.0L.0,10.4L82.7,10.4z"/><g id="shape92" transform="translate(1924.302600,1897.233900)"><text xml:space="preserve" style="fill:#000000;font-family:Comic Sans MS,PingFang SC,Microsoft YaHei,Arial;font-size:11px"><tspan textLength="81.1" x="8.2" y="17.0">New Probability</tspan></text></g><g id="shape93" transform="translate(1924.302600,1877.443900)"><text xml:space="preserve" style="fill:#000000;font-family:Comic Sans MS,PingFang SC,Microsoft YaHei,Arial;font-size:11px"><tspan textLength="77.0" x="11.8" y="17.0">Old Probability</tspan></text></g><path id="shape94" stroke-width="2" fill="none" stroke="#303030" transform="matrix(0.000000,1.000000,-1.000000,0.000000,2025.950000,1878.372500)" d="M-0.0,-0.0L41.6,-0.0"/><g id="shape95" transform="translate(2109.220000,1889.310000)"><path stroke-width="1.333330035209656" stroke-dasharray="3.33333,3.33333" fill="none" stroke="#bc5b57" d="M.0,.0L-18.0,.0"/><path stroke-width="1" stroke-linecap="round" fill="#bc5b57" stroke="#bc5b57" d="M-22.0,.0L-14.0,2.3L-18.0,.0L-14.0,-2.3L-22.0,.0"/></g><g id="shape96" transform="translate(1959.131000,1847.440000)"><text xml:space="preserve" style="fill:#000000;font-family:Comic Sans MS,PingFang SC,Microsoft YaHei,Arial;font-size:11px"><tspan textLength="237.3" x="57.0" y="17.0">Case1: Discards Updates of Valuable Direction</tspan></text></g><path id="shape97" stroke-width="1.333330035209656" stroke-dasharray="3.33333,3.33333" fill="none" stroke="#bc5b57" transform="translate(2087.239200,1884.098150)" d="M22.0,10.4L22.0,.0L.0,.0L.0,10.4L22.0,10.4z"/><path id="shape98" stroke-width="2" fill="none" stroke="#000000" transform="matrix(0.000000,1.000000,-1.000000,0.000000,2114.970000,1878.152500)" d="M-0.0,-0.0L41.6,-0.0" clip-path="url(#clip4)"/><path id="shape99" fill-rule="nonzero" fill="#d0e2ff" transform="translate(2132.707600,1884.098150)" d="M82.2,10.4L82.2,.0L.0,.0L.0,10.4L82.2,10.4z"/><path id="shape100" fill-rule="nonzero" fill="#c0c3e5" transform="translate(2132.707600,1904.038150)" d="M82.2,10.4L82.2,.0L.0,.0L.0,10.4L82.2,10.4z"/><path id="shape101" stroke-width="2" fill="none" stroke="#303030" transform="matrix(0.000000,1.000000,-1.000000,0.000000,2132.550000,1878.522500)" d="M-0.0,-0.0L41.6,-0.0"/><g id="shape102" transform="translate(2215.340000,1889.310000)"><path stroke-width="1.333330035209656" stroke-dasharray="3.33333,3.33333" fill="none" stroke="#668cbc" d="M.0,.0L18.0,.0"/><path stroke-width="1" stroke-linecap="round" fill="#668cbc" stroke="#668cbc" d="M22.0,.0L14.0,-2.3L18.0,.0L14.0,2.3L22.0,.0"/></g><path id="shape103" stroke-width="2" fill="none" stroke="#000000" transform="matrix(0.000000,1.000000,-1.000000,0.000000,2208.570000,1878.302500)" d="M-0.0,-0.0L41.6,-0.0" clip-path="url(#clip5)"/><g id="shape104" transform="translate(2241.257800,1877.443800)"><text xml:space="preserve" style="fill:#000000;font-family:Comic Sans MS,PingFang SC,Microsoft YaHei,Arial;font-size:11px"><tspan textLength="80.5" x="11.2" y="17.0">Slightly Exceed</tspan><tspan textLength="68.1" x="17.4" y="33.0">the Boundary</tspan></text></g><path id="shape105" stroke-width="1.333330035209656" stroke-dasharray="3.33333,3.33333" fill="none" stroke="#668cbc" transform="translate(2215.339200,1884.098150)" d="M22.0,10.4L22.0,.0L.0,.0L.0,10.4L22.0,10.4z"/><path id="shape106" stroke-width="1.333330035209656" stroke-dasharray="3.33333,3.33333" fill="none" stroke="#2d3c91" transform="translate(2362.018000,1848.573900)" d="M322.4,21.7L322.4,.0L.0,.0L.0,21.7L322.4,21.7z"/><path id="shape107" fill-rule="nonzero" fill="#d0e2ff" transform="translate(2364.072900,1884.188150)" d="M82.7,10.4L82.7,.0L.0,.0L.0,10.4L82.7,10.4z"/><path id="shape108" fill-rule="nonzero" fill="#c0c3e5" transform="translate(2364.076000,1904.118150)" d="M60.5,10.4L60.5,.0L.0,.0L.0,10.4L60.5,10.4z"/><path id="shape109" stroke-width="2" fill="none" stroke="#303030" transform="matrix(0.000000,1.000000,-1.000000,0.000000,2363.470000,1878.462500)" d="M-0.0,-0.0L41.6,-0.0"/><g id="shape110" transform="translate(2446.740000,1889.400000)"><path stroke-width="1.333330035209656" stroke-dasharray="3.33333,3.33333" fill="none" stroke="#bc5b57" d="M.0,.0L-18.0,.0"/><path stroke-width="1" stroke-linecap="round" fill="#bc5b57" stroke="#bc5b57" d="M-22.0,.0L-14.0,2.3L-18.0,.0L-14.0,-2.3L-22.0,.0"/></g><g id="shape111" transform="translate(2369.762000,1847.440000)"><text xml:space="preserve" style="fill:#000000;font-family:Comic Sans MS,PingFang SC,Microsoft YaHei,Arial;font-size:11px"><tspan textLength="249.8" x="28.6" y="17.0">Case2: Performs Updates of Incorrect Direction</tspan></text></g><path id="shape112" stroke-width="1.333330035209656" stroke-dasharray="3.33333,3.33333" fill="none" stroke="#bc5b57" transform="translate(2424.759200,1884.188150)" d="M22.0,10.4L22.0,.0L.0,.0L.0,10.4L22.0,10.4z"/><path id="shape113" stroke-width="2" fill="none" stroke="#000000" transform="matrix(0.000000,1.000000,-1.000000,0.000000,2442.010000,1878.372500)" d="M-0.0,-0.0L41.6,-0.0" clip-path="url(#clip6)"/><path id="shape114" fill-rule="nonzero" fill="#d0e2ff" transform="translate(2460.639000,1884.188150)" d="M83.6,10.4L83.6,.0L.0,.0L.0,10.4L83.6,10.4z"/><path id="shape115" fill-rule="nonzero" fill="#c0c3e5" transform="translate(2460.637500,1904.118150)" d="M105.7,10.4L105.7,.0L.0,.0L.0,10.4L105.7,10.4z"/><path id="shape116" stroke-width="2" fill="none" stroke="#303030" transform="matrix(0.000000,1.000000,-1.000000,0.000000,2461.070000,1878.602500)" d="M-0.0,-0.0L41.6,-0.0"/><g id="shape117" transform="translate(2544.360000,1889.400000)"><path stroke-width="1.333330035209656" stroke-dasharray="3.33333,3.33333" fill="none" stroke="#668cbc" d="M.0,.0L18.0,.0"/><path stroke-width="1" stroke-linecap="round" fill="#668cbc" stroke="#668cbc" d="M22.0,.0L14.0,-2.3L18.0,.0L14.0,2.3L22.0,.0"/></g><path id="shape118" stroke-width="2" fill="none" stroke="#000000" transform="matrix(0.000000,1.000000,-1.000000,0.000000,2549.620000,1878.372500)" d="M-0.0,-0.0L41.6,-0.0" clip-path="url(#clip7)"/><g id="shape119" transform="translate(2573.854100,1880.443800)"><text xml:space="preserve" style="fill:#000000;font-family:Comic Sans MS,PingFang SC,Microsoft YaHei,Arial;font-size:11px"><tspan textLength="68.2" x="20.9" y="17.0">Nearly Reach</tspan><tspan textLength="68.1" x="21.0" y="33.0">the Boundary</tspan></text></g><path id="shape120" stroke-width="1.333330035209656" stroke-dasharray="3.33333,3.33333" fill="none" stroke="#668cbc" transform="translate(2544.359200,1884.188150)" d="M22.0,10.4L22.0,.0L.0,.0L.0,10.4L22.0,10.4z"/><g id="group121" transform="translate(1993.629230,1854.390470)"><path id="shape122" fill-rule="nonzero" fill="#ffffff" d="M9.3,10.1C9.1,10.1,9.0,10.0,8.8,9.9L.2,1.3C-0.1,1.0,-0.1,.5,.2,.2C.5,-0.1,1.0,-0.1,1.3,.2L9.9,8.8C10.2,9.1,10.2,9.6,9.9,9.9C9.7,10.0,9.5,10.1,9.3,10.1z"/><path id="shape123" fill-rule="nonzero" fill="#ffffff" transform="translate(0.000050,0.000000)" d="M.8,10.1C.6,10.1,.4,10.0,.2,9.9C-0.1,9.6,-0.1,9.1,.2,8.8L8.8,.2C9.1,-0.1,9.6,-0.1,9.9,.2C10.2,.5,10.2,1.0,9.9,1.3L1.3,9.9C1.2,10.0,1.0,10.1,.8,10.1z"/></g><path id="shape124" fill-rule="nonzero" fill="#bc5b57" transform="translate(2373.539760,1851.449760)" d="M.0,8.0C.0,3.6,3.6,.0,8.0,.0C12.4,.0,16.0,3.6,16.0,8.0C16.0,12.4,12.4,16.0,8.0,16.0C3.6,16.0,.0,12.4,.0,8.0z"/><g id="group125" transform="translate(2376.469230,1854.380470)"><path id="shape126" fill-rule="nonzero" fill="#ffffff" d="M9.3,10.1C9.1,10.1,9.0,10.0,8.8,9.9L.2,1.3C-0.1,1.0,-0.1,.5,.2,.2C.5,-0.1,1.0,-0.1,1.3,.2L9.9,8.8C10.2,9.1,10.2,9.6,9.9,9.9C9.7,10.0,9.5,10.1,9.3,10.1z"/><path id="shape127" fill-rule="nonzero" fill="#ffffff" transform="translate(0.000050,0.000000)" d="M.8,10.1C.6,10.1,.4,10.0,.2,9.9C-0.1,9.6,-0.1,9.1,.2,8.8L8.8,.2C9.1,-0.1,9.6,-0.1,9.9,.2C10.2,.5,10.2,1.0,9.9,1.3L1.3,9.9C1.2,10.0,1.0,10.1,.8,10.1z"/></g><g id="shape128" transform="translate(1943.012000,1816.853900)"><text xml:space="preserve" style="fill:#000000;font-family:Times New Roman,PingFang SC,Microsoft YaHei,Arial;font-size:11px"><tspan textLength="12.8" x="5.9" y="15.0">(1)</tspan></text></g><g id="shape129" transform="translate(1958.002000,1931.123900)"><text xml:space="preserve" style="fill:#000000;font-family:Times New Roman,PingFang SC,Microsoft YaHei,Arial;font-size:11px"><tspan textLength="12.8" x="5.9" y="15.0">(2)</tspan></text></g><g id="shape130" transform="translate(2394.202000,1930.123900)"><text xml:space="preserve" style="fill:#000000;font-family:Times New Roman,PingFang SC,Microsoft YaHei,Arial;font-size:11px"><tspan textLength="12.8" x="5.9" y="15.0">(3)</tspan></text></g><g id="shape131" transform="translate(2207.245400,1912.756200)"><text xml:space="preserve" style="fill:#000000;font-family:Myanmar MN,PingFang SC,Microsoft YaHei,Arial;font-size:8px"><tspan textLength="70.6" x="8.2" y="13.0">Clipping Boundary</tspan></text></g><path id="shape132" fill-rule="nonzero" stroke-width="1" fill="#7991ff" stroke="#7991ff" transform="matrix(-1.000000,-0.000000,0.000000,-1.000000,2245.042800,1914.330690)" d="M33.3,14.8C17.7,14.8,8.0,10.4,2.4,3.5L.0,7.7L.0,.0L9.4,4.0L3.4,3.2C10.1,12.1,23.4,14.4,33.3,14.1L33.3,14.8z"/></g></svg>